<?xml version="1.0" standalone="no"?>
<!DOCTYPE svg PUBLIC "-//W3C//DTD SVG 20010904//EN"
 "http://www.w3.org/TR/2001/REC-SVG-20010904/DTD/svg10.dtd">
<svg version="1.0" xmlns="http://www.w3.org/2000/svg"
 width="702.000000pt" height="315.000000pt" viewBox="0 0 702.000000 315.000000"
 preserveAspectRatio="xMidYMid meet">

<g transform="translate(0.000000,315.000000) scale(0.100000,-0.100000)"
fill="#000000" stroke="none">
<path d="M4250 2547 c-103 -31 -174 -72 -240 -137 -143 -140 -176 -350 -85
-537 82 -167 270 -263 520 -263 129 0 260 27 351 73 98 49 98 50 72 138 -20
67 -32 88 -49 89 -3 0 -16 -23 -30 -52 -75 -162 -250 -227 -445 -167 -57 18
-77 31 -129 82 -46 46 -68 78 -84 122 -69 181 -41 396 66 515 79 88 177 120
305 100 141 -21 210 -70 251 -176 14 -34 29 -59 38 -59 9 0 26 33 46 90 17 50
32 93 32 96 1 10 -129 66 -194 84 -38 11 -113 18 -205 21 -130 4 -153 2 -220
-19z"/>
<path d="M2830 2536 c0 -8 9 -17 19 -21 44 -14 46 -23 51 -359 5 -311 6 -323
29 -369 63 -128 216 -185 470 -175 162 7 224 28 297 102 80 82 86 107 93 406
7 288 15 322 85 375 64 49 53 55 -108 55 -80 0 -147 -4 -150 -8 -3 -5 15 -25
39 -45 71 -60 77 -92 73 -379 -3 -229 -5 -246 -26 -294 -47 -103 -123 -146
-273 -152 -120 -5 -187 12 -248 65 -79 67 -81 75 -81 426 l0 308 25 24 c13 14
29 25 35 25 5 0 10 7 10 15 0 13 -26 15 -170 15 -141 0 -170 -2 -170 -14z"/>
<path d="M4937 2543 c-12 -11 -8 -33 6 -33 8 0 22 -9 33 -21 18 -20 19 -41 19
-383 0 -400 0 -397 -65 -431 -17 -9 -30 -21 -30 -28 0 -16 383 -18 389 -2 2 5
-9 17 -25 25 -57 31 -69 76 -69 255 l0 160 155 -1 c140 -1 161 -3 215 -25 42
-17 66 -34 80 -56 38 -61 45 -45 45 112 0 120 -3 145 -14 145 -8 0 -21 -12
-28 -27 -8 -18 -34 -39 -73 -58 -59 -29 -62 -30 -220 -30 l-160 0 -3 173 -2
172 153 0 c224 0 332 -32 439 -128 59 -54 66 -34 27 87 l-32 101 -417 0 c-229
0 -420 -3 -423 -7z"/>
<path d="M1050 1210 c0 -7 802 -10 2385 -10 1583 0 2385 3 2385 10 0 7 -802
10 -2385 10 -1583 0 -2385 -3 -2385 -10z"/>
<path d="M156 1030 c-198 -79 -207 -336 -16 -424 69 -31 196 -29 273 6 60 28
64 35 44 82 l-13 30 -23 -38 c-33 -53 -75 -76 -139 -76 -113 0 -182 80 -182
210 0 134 83 223 193 206 58 -10 94 -34 116 -81 19 -40 19 -40 29 -15 27 70
27 69 -25 92 -69 31 -191 35 -257 8z"/>
<path d="M3880 1034 c0 -3 7 -12 15 -20 12 -13 15 -49 15 -199 0 -179 -1 -184
-22 -199 -21 -15 -17 -16 67 -16 84 0 88 1 67 16 -20 14 -22 23 -22 111 l0 96
71 -5 c89 -7 107 -23 147 -133 l29 -80 64 -3 c45 -2 59 1 49 7 -8 6 -33 48
-55 93 -32 67 -47 87 -78 104 l-39 21 36 7 c56 11 96 50 96 95 0 87 -61 111
-287 111 -84 0 -153 -3 -153 -6z m314 -45 c23 -18 27 -28 24 -62 -5 -60 -38
-81 -139 -86 l-79 -3 0 86 0 86 84 0 c70 0 88 -3 110 -21z"/>
<path d="M3015 925 c-52 -19 -110 -81 -119 -128 -15 -81 31 -163 109 -193 99
-37 221 1 260 82 72 151 -82 298 -250 239z m126 -21 c81 -41 92 -206 18 -268
-58 -49 -136 -30 -170 41 -18 36 -21 56 -16 105 10 112 84 166 168 122z"/>
<path d="M4835 925 c-22 -8 -41 -15 -42 -15 -8 0 -33 -63 -33 -80 0 -42 50
-76 130 -90 99 -16 110 -23 110 -65 0 -47 -29 -65 -101 -65 -47 0 -63 5 -88
26 -17 14 -31 32 -31 40 0 22 -17 16 -24 -8 -12 -47 -7 -55 38 -67 57 -14 156
-14 193 0 68 25 101 95 69 144 -20 31 -45 41 -133 55 -78 13 -93 22 -93 61 0
36 33 59 85 59 48 -1 83 -19 101 -51 l12 -24 11 28 c16 42 15 44 -33 56 -60
15 -122 13 -171 -4z"/>
<path d="M5584 813 c-36 -71 -79 -147 -95 -170 -16 -23 -29 -43 -29 -45 0 -3
79 -2 100 2 3 0 -3 5 -12 11 -23 13 -23 41 2 89 20 40 21 40 80 40 l60 0 26
-51 c15 -30 23 -60 20 -73 -5 -20 -2 -21 52 -19 31 1 58 2 60 2 2 1 -8 16 -21
34 -13 17 -57 94 -96 170 -40 75 -74 137 -76 137 -2 0 -34 -57 -71 -127z m69
2 c9 -20 17 -38 17 -40 0 -3 -18 -5 -40 -5 -22 0 -40 2 -40 5 0 11 34 75 40
75 3 0 14 -16 23 -35z"/>
<path d="M6385 929 c-85 -32 -130 -99 -123 -184 8 -101 77 -155 198 -155 43 0
79 7 109 20 39 18 43 22 36 47 -8 35 -16 42 -23 23 -3 -8 -18 -27 -33 -42 -51
-52 -160 -32 -196 35 -23 43 -23 141 0 184 44 83 177 83 212 0 l13 -32 11 28
c6 16 11 32 11 37 0 33 -156 60 -215 39z"/>
<path d="M510 920 c0 -5 5 -10 10 -10 6 0 10 -52 10 -137 0 -113 -3 -140 -17
-155 -16 -17 -10 -18 150 -18 l165 0 12 36 c15 45 10 50 -25 22 -47 -37 -168
-56 -206 -33 -5 4 -9 35 -9 71 l0 64 65 0 c51 0 69 -4 84 -19 11 -11 22 -17
25 -13 10 9 7 80 -4 87 -5 3 -10 2 -10 -3 0 -17 -51 -32 -105 -32 l-55 0 0 65
0 65 59 0 c68 0 105 -12 140 -43 l24 -22 -7 34 c-3 18 -6 37 -6 42 0 5 -67 9
-150 9 -93 0 -150 -4 -150 -10z"/>
<path d="M884 911 c15 -17 18 -39 17 -142 0 -92 -4 -127 -16 -145 l-15 -24 51
0 51 0 -23 19 c-21 17 -23 28 -27 135 -3 66 -1 116 5 116 5 0 66 -63 137 -140
70 -77 132 -140 137 -140 5 0 9 63 9 148 0 117 3 152 16 170 15 22 15 22 -32
22 l-47 0 19 -21 c15 -17 20 -40 22 -113 l4 -91 -114 113 -113 112 -49 0 c-48
0 -49 0 -32 -19z"/>
<path d="M1261 899 c-17 -49 -14 -52 24 -23 23 17 49 27 73 28 l37 1 3 -136
c2 -112 0 -138 -13 -149 -8 -7 -15 -15 -15 -19 0 -5 105 -6 129 -2 3 1 -3 7
-12 14 -14 10 -16 33 -17 142 -1 72 -1 136 -1 143 2 29 73 10 120 -32 l24 -21
-7 34 c-3 18 -6 37 -6 42 0 5 -74 9 -164 9 l-164 0 -11 -31z"/>
<path d="M1646 905 c13 -20 15 -47 12 -150 -3 -112 -5 -128 -22 -141 -17 -12
1 -14 147 -14 l167 0 10 26 c6 14 10 32 10 41 0 15 -2 15 -17 1 -39 -34 -87
-50 -149 -50 -34 0 -67 3 -73 6 -6 4 -11 36 -11 72 l0 64 64 0 c49 0 69 -5 90
-21 l26 -20 0 52 c0 52 0 52 -21 33 -15 -13 -40 -20 -90 -22 l-69 -4 0 67 0
67 78 -3 c68 -4 84 -8 116 -33 35 -26 38 -27 32 -7 -3 11 -9 30 -12 41 -5 19
-14 20 -155 20 l-149 0 16 -25z"/>
<path d="M2014 908 c24 -33 23 -264 -1 -290 -15 -17 -13 -18 47 -18 60 0 62 1
47 18 -12 13 -17 37 -17 80 l0 62 53 0 c64 0 85 -18 115 -100 l20 -55 48 -3
c46 -3 47 -2 32 15 -9 10 -25 39 -36 64 -11 25 -32 55 -47 67 l-27 21 36 15
c73 30 70 107 -4 133 -19 7 -90 12 -158 12 l-123 1 15 -22z m232 -23 c20 -27
17 -59 -7 -81 -16 -14 -36 -19 -82 -19 l-62 0 -3 49 c-5 76 -2 79 74 74 50 -3
70 -9 80 -23z"/>
<path d="M2568 918 c19 -19 16 -282 -3 -302 -8 -8 -15 -16 -15 -18 0 -2 27 -3
60 -3 60 0 68 3 51 20 -8 9 -16 95 -12 133 2 22 114 16 145 -9 l26 -20 0 51 0
51 -26 -20 c-20 -16 -41 -21 -84 -21 l-58 0 -4 49 c-5 79 -4 81 62 81 67 0
105 -12 139 -43 l23 -22 -7 35 c-4 19 -9 38 -12 43 -2 4 -70 7 -151 7 -113 0
-143 -3 -134 -12z"/>
<path d="M3320 922 c0 -6 5 -12 11 -14 16 -5 15 -273 -1 -293 -11 -13 -5 -15
49 -15 57 0 61 1 47 16 -11 11 -16 35 -16 80 l0 64 53 0 c64 0 78 -12 110 -96
l23 -59 50 -3 c27 -1 44 1 37 6 -7 4 -24 34 -39 66 -16 36 -37 65 -55 75 l-28
16 42 20 c38 18 42 24 45 62 5 66 -20 77 -190 81 -89 3 -138 0 -138 -6z m237
-36 c24 -21 26 -27 18 -52 -14 -38 -49 -55 -110 -52 l-50 3 -3 63 -3 62 60 0
c49 0 65 -4 88 -24z"/>
<path d="M4393 912 c14 -15 17 -42 17 -147 0 -105 -3 -132 -17 -147 -16 -17
-10 -18 149 -18 l165 0 11 37 c13 43 9 52 -15 31 -45 -40 -93 -52 -190 -49
l-33 1 0 70 0 70 65 0 c53 0 68 -4 85 -22 l20 -22 0 53 0 52 -26 -20 c-20 -16
-41 -21 -85 -21 l-59 0 0 65 0 65 59 0 c67 0 106 -12 139 -42 18 -18 22 -19
22 -5 0 8 -4 27 -10 41 l-10 26 -151 0 c-147 0 -152 -1 -136 -18z"/>
<path d="M5113 912 c14 -15 17 -41 17 -145 0 -114 -2 -129 -20 -147 l-20 -20
168 0 168 0 11 40 c9 37 3 54 -12 30 -16 -26 -89 -51 -152 -52 -77 -1 -83 4
-83 85 l0 57 67 0 c55 0 71 -4 90 -22 l23 -21 0 53 c0 53 0 53 -21 34 -15 -13
-40 -20 -90 -22 l-69 -4 0 66 0 66 64 0 c72 0 110 -11 144 -42 25 -24 27 -16
11 31 l-11 31 -151 0 c-145 0 -150 -1 -134 -18z"/>
<path d="M5879 917 c17 -21 17 -282 0 -303 -10 -12 -2 -14 50 -14 57 0 61 1
47 16 -11 11 -16 35 -16 80 l0 64 53 0 c64 0 77 -11 111 -96 l24 -59 49 -3
c26 -1 43 1 36 6 -7 4 -24 33 -38 65 -16 37 -36 64 -55 76 l-30 18 40 16 c62
24 74 91 22 125 -37 24 -313 32 -293 9z m216 -19 c55 -25 36 -101 -28 -113
-18 -4 -49 -5 -68 -3 l-34 3 -3 63 -3 62 55 0 c30 0 67 -5 81 -12z"/>
<path d="M6658 918 c19 -19 16 -282 -3 -302 -8 -8 -15 -16 -15 -18 0 -2 27 -3
60 -3 57 0 72 6 50 20 -5 3 -10 37 -10 76 l0 69 90 0 90 0 0 -69 c0 -39 -4
-73 -10 -76 -28 -17 5 -22 104 -16 5 1 2 9 -7 19 -14 15 -17 41 -17 146 0 70
5 136 10 147 10 18 7 19 -47 19 -44 0 -54 -3 -45 -12 7 -7 12 -39 12 -75 l0
-63 -90 0 -90 0 0 63 c0 36 5 68 12 75 9 9 -1 12 -47 12 -46 0 -56 -3 -47 -12z"/>
<path d="M1352 456 c-106 -35 -164 -103 -170 -202 -8 -118 48 -203 157 -239
70 -23 178 -17 249 14 55 25 61 37 42 87 l-11 27 -28 -45 c-69 -109 -224 -98
-290 22 -34 60 -34 166 -1 234 30 63 68 86 144 86 72 0 120 -26 138 -76 6 -18
15 -34 19 -34 11 0 32 69 26 84 -15 39 -199 67 -275 42z"/>
<path d="M4580 451 c0 -4 8 -15 18 -24 9 -9 64 -109 122 -221 58 -113 108
-206 112 -206 4 0 48 80 97 178 50 98 106 198 125 224 19 25 32 48 29 52 -9 9
-123 7 -123 -2 0 -4 9 -13 20 -20 11 -7 20 -20 20 -30 0 -19 -120 -272 -129
-272 -10 1 -161 278 -161 294 0 9 5 16 10 16 6 0 10 4 10 9 0 6 -34 10 -75 10
-41 0 -75 -4 -75 -8z"/>
<path d="M1822 349 c-55 -13 -116 -70 -132 -126 -40 -133 110 -259 251 -212
48 16 96 55 115 91 20 40 21 115 1 154 -39 75 -139 115 -235 93z m132 -45 c72
-73 53 -235 -32 -271 -32 -13 -42 -14 -76 -2 -52 19 -76 53 -83 122 -7 66 15
138 50 162 12 8 42 15 68 15 37 0 52 -5 73 -26z"/>
<path d="M5365 349 c-105 -25 -125 -135 -32 -174 18 -7 52 -16 77 -19 80 -12
100 -24 100 -61 0 -47 -29 -69 -95 -69 -58 -1 -100 21 -122 65 l-12 23 -10
-28 c-18 -46 -14 -54 41 -71 152 -45 291 23 264 130 -9 36 -58 62 -130 70 -78
9 -106 26 -106 66 0 25 6 32 36 45 51 22 107 10 139 -28 l25 -29 10 26 c15 41
14 42 -53 54 -72 12 -77 12 -132 0z"/>
<path d="M5903 346 c-95 -30 -138 -91 -131 -181 6 -68 37 -111 102 -141 60
-28 97 -30 157 -9 126 45 167 182 83 275 -51 57 -137 79 -211 56z m126 -32
c32 -23 51 -73 51 -136 0 -70 -25 -118 -72 -141 -99 -49 -186 51 -159 182 15
76 50 111 111 111 26 0 56 -7 69 -16z"/>
<path d="M470 341 c0 -6 5 -13 10 -16 6 -4 10 -62 10 -142 0 -113 -3 -140 -17
-155 -15 -17 -13 -18 52 -18 65 0 67 1 52 18 -13 15 -17 43 -17 152 -1 74 2
143 5 153 6 15 1 17 -44 17 -28 0 -51 -4 -51 -9z"/>
<path d="M617 344 c-3 -4 0 -13 8 -21 12 -11 15 -43 15 -137 0 -110 -2 -126
-21 -150 l-20 -26 50 0 c28 0 51 5 51 10 0 6 -4 10 -9 10 -21 0 -32 61 -29
160 l3 104 134 -146 c74 -81 139 -144 143 -141 5 3 9 26 8 52 -5 148 1 250 15
265 23 22 19 26 -30 26 -48 0 -53 -4 -31 -29 15 -17 19 -44 17 -136 l-1 -60
-108 113 c-102 107 -109 112 -148 112 -22 0 -43 -3 -47 -6z"/>
<path d="M2126 323 c23 -45 19 -219 -6 -268 -11 -22 -20 -41 -20 -42 0 -2 23
-3 52 -3 l51 0 -22 24 c-20 21 -21 31 -19 132 l3 109 60 -132 c33 -73 64 -131
69 -130 5 2 37 63 70 137 l61 133 3 -118 c2 -99 0 -121 -14 -136 -17 -18 -15
-19 51 -19 65 0 67 1 52 18 -14 15 -17 42 -17 160 0 88 4 142 10 142 6 0 10 5
10 10 0 6 -20 10 -44 10 l-44 0 -53 -120 c-29 -66 -55 -120 -58 -120 -4 1 -32
55 -63 120 l-57 120 -45 0 -45 0 15 -27z"/>
<path d="M2560 341 c0 -6 5 -13 10 -16 6 -4 10 -62 10 -140 0 -125 -1 -136
-22 -155 l-22 -20 74 0 74 0 -23 21 c-19 17 -21 29 -19 77 l3 57 65 2 c75 3
146 26 160 53 24 45 8 80 -50 111 -30 15 -260 24 -260 10z m226 -46 c15 -15
23 -32 20 -41 -3 -9 -6 -20 -6 -25 0 -17 -59 -39 -105 -39 l-45 0 0 65 0 65
55 0 c47 0 60 -4 81 -25z"/>
<path d="M2910 341 c0 -6 5 -13 10 -16 6 -4 10 -55 10 -120 0 -63 4 -125 10
-139 15 -40 65 -60 147 -61 121 0 151 40 152 201 1 77 4 96 22 118 l20 26 -50
0 c-54 0 -61 -5 -33 -26 14 -11 17 -29 17 -128 0 -113 -1 -116 -28 -143 -23
-24 -36 -28 -81 -28 -44 0 -59 5 -80 24 -25 24 -26 28 -26 151 0 85 4 130 12
138 9 9 -1 12 -45 12 -31 0 -57 -4 -57 -9z"/>
<path d="M3304 338 c-11 -18 -22 -68 -15 -68 4 0 16 9 26 20 20 22 89 45 105
35 6 -4 10 -64 10 -142 0 -113 -3 -140 -17 -155 -15 -17 -13 -18 52 -18 65 0
67 1 52 18 -14 15 -17 42 -17 155 0 78 4 138 10 142 16 10 81 -12 106 -36 31
-29 39 -20 20 25 l-15 35 -156 -1 c-85 0 -158 -5 -161 -10z"/>
<path d="M3666 341 c-3 -5 1 -11 9 -15 22 -8 22 -268 0 -290 -8 -8 -15 -17
-15 -20 0 -3 72 -6 160 -6 178 0 161 -6 184 68 7 21 5 20 -44 -10 -45 -28 -60
-32 -123 -32 l-72 -1 -5 45 c-3 25 -3 57 -1 73 3 26 5 27 63 27 49 0 63 -4 83
-25 l25 -24 0 56 0 56 -23 -21 c-19 -18 -35 -22 -85 -22 l-62 0 0 65 0 65 53
0 c58 -1 119 -19 148 -46 22 -20 24 -11 8 35 l-11 31 -143 0 c-79 0 -146 -4
-149 -9z"/>
<path d="M4040 341 c0 -6 5 -13 10 -16 6 -4 10 -62 10 -142 0 -113 -3 -140
-17 -155 -15 -17 -13 -18 52 -18 65 0 67 1 52 18 -12 13 -17 37 -17 85 l0 67
44 0 c60 0 89 -26 118 -105 l23 -65 42 0 c45 0 53 9 28 30 -8 7 -20 30 -27 52
-7 24 -25 51 -44 66 l-33 26 39 17 c75 34 63 114 -20 135 -55 14 -260 18 -260
5z m231 -31 c13 -7 19 -21 19 -45 0 -47 -29 -65 -102 -65 l-58 0 0 60 0 60 61
0 c33 0 69 -5 80 -10z"/>
<path d="M5120 340 c0 -5 5 -10 10 -10 6 0 10 -54 10 -142 0 -118 -3 -145 -17
-160 -15 -17 -13 -18 52 -18 66 0 68 0 51 19 -15 17 -17 38 -14 170 l3 151
-47 0 c-27 0 -48 -4 -48 -10z"/>
<path d="M5620 340 c0 -5 5 -10 10 -10 6 0 10 -54 10 -142 0 -118 -3 -145 -17
-160 -15 -17 -13 -18 52 -18 66 0 68 0 51 19 -15 17 -17 38 -14 170 l3 151
-47 0 c-27 0 -48 -4 -48 -10z"/>
<path d="M6197 344 c-3 -4 1 -13 9 -22 13 -12 15 -38 12 -142 -3 -109 -6 -131
-22 -149 l-19 -21 52 0 52 0 -21 28 c-19 25 -20 40 -18 141 l3 113 135 -148
135 -148 5 156 c4 135 8 159 24 177 l19 21 -51 0 c-29 0 -52 -2 -52 -5 0 -3 9
-14 20 -25 17 -17 20 -33 20 -107 l0 -88 -113 113 c-101 101 -116 112 -148
112 -20 0 -38 -3 -42 -6z"/>
</g>
</svg>
