<?xml version="1.0" standalone="no"?>
<!DOCTYPE svg PUBLIC "-//W3C//DTD SVG 20010904//EN"
 "http://www.w3.org/TR/2001/REC-SVG-20010904/DTD/svg10.dtd">
<svg version="1.0" xmlns="http://www.w3.org/2000/svg"
 width="200.000000pt" height="200.000000pt" viewBox="0 0 200.000000 200.000000"
 preserveAspectRatio="xMidYMid meet">

<g transform="translate(0.000000,200.000000) scale(0.100000,-0.100000)"
fill="#000000" stroke="none">
<path d="M0 1000 l0 -1000 1000 0 1000 0 0 1000 0 1000 -1000 0 -1000 0 0
-1000z m1087 820 c-148 -47 -247 -158 -247 -277 0 -100 63 -183 283 -376 42
-38 87 -87 99 -110 26 -51 29 -128 6 -177 l-16 -35 0 51 c0 99 -29 129 -208
218 -161 79 -237 145 -286 244 -29 59 -33 76 -32 147 0 98 24 154 93 218 82
77 187 116 311 115 l55 0 -58 -18z m13 -149 l-25 -26 -25 25 -25 25 25 25 25
25 25 -24 25 -24 -25 -26z m-375 27 c-47 -56 -68 -115 -68 -199 -1 -64 4 -85
31 -143 50 -107 134 -182 279 -252 65 -31 134 -68 154 -81 62 -41 86 -118 54
-173 l-14 -25 -1 31 c0 67 -59 108 -217 149 -253 67 -376 172 -405 347 -20
124 37 254 149 342 31 25 59 43 61 41 3 -2 -8 -19 -23 -37z m667 -307 l12 -73
-29 -24 c-38 -30 -40 -30 -55 6 -20 49 -49 80 -75 80 -47 0 -59 -66 -22 -121
18 -27 30 -35 59 -37 43 -4 74 13 138 75 l46 43 27 -28 27 -28 -10 -155 c-9
-125 -14 -156 -28 -167 -19 -14 -61 -27 -67 -20 -10 10 17 78 30 78 12 0 15
18 15 92 0 51 -4 88 -8 83 -5 -6 -19 -41 -32 -80 -12 -38 -32 -86 -43 -105
-27 -46 -128 -173 -133 -167 -2 2 3 20 11 40 39 94 4 192 -106 295 -40 37 -99
92 -132 123 l-61 57 29 38 c105 143 201 181 326 130 11 -5 20 2 29 21 l13 28
13 -55 c7 -30 19 -88 26 -129z m-879 -50 c20 -165 165 -291 412 -357 114 -30
167 -54 189 -86 18 -25 21 -65 7 -87 -7 -11 -10 -9 -15 7 -9 27 -75 52 -139
52 -74 0 -224 33 -288 64 -115 54 -168 127 -190 261 -12 71 -5 210 10 200 5
-2 11 -27 14 -54z m275 -475 c37 -8 108 -18 157 -21 109 -8 122 -11 135 -36
27 -49 -43 -85 -145 -76 -120 11 -247 81 -328 180 l-36 44 75 -37 c41 -21 105
-45 142 -54z m372 -288 c24 -13 45 -27 46 -33 2 -5 -11 -21 -27 -34 -29 -22
-31 -23 -65 -6 -122 57 -220 -121 -118 -216 33 -31 101 -33 133 -5 20 18 21
18 56 -9 31 -23 34 -29 23 -42 -22 -27 -90 -53 -139 -53 -103 0 -191 77 -205
181 -23 164 150 291 296 217z m-598 -129 c3 -140 3 -141 31 -165 36 -31 71
-31 102 1 24 23 25 29 25 165 l0 140 45 0 45 0 0 -142 c0 -179 -14 -218 -86
-250 -58 -25 -141 -21 -182 9 -53 40 -63 72 -69 217 -3 74 -3 141 0 150 4 11
19 16 46 16 l39 0 4 -141z m978 101 l0 -40 -90 0 -90 0 0 -40 0 -39 83 -3 82
-3 3 -37 3 -37 -83 -3 -83 -3 -3 -78 -3 -77 -44 0 -45 0 0 193 c0 107 3 197 7
200 3 4 64 7 135 7 l128 0 0 -40z"/>
</g>
</svg>
